<svg xmlns="http://www.w3.org/2000/svg" width="82.724" height="50.943" viewBox="0 0 82.723999 50.942663"><path d="M3.43 25.47C3.43 13.3 13.295 3.43 25.466 3.43c5.328 0 10.208 1.895 14.018 5.045H11.94V42.46h27.547l.002.005c-3.81 3.148-8.693 5.043-14.023 5.043-12.17 0-22.038-9.864-22.038-22.04zM36.41 39.19H15.357V11.75H36.41L23.53 25.468zm5.663.762L28.48 25.465 44.432 8.47C39.768 3.27 33 0 25.467 0 11.403 0 0 11.403 0 25.47c0 14.07 11.403 25.473 25.467 25.473 7.538 0 14.305-3.276 18.966-8.475l-2.358-2.516" fill="#ee2722"/><path d="M67.1 8.463H56.184L40.56 42.487h17.543l3.538-7.75 3.54 7.75h17.544zm-2.127 3.314l12.58 27.395H67.31l-5.667-12.416-5.67 12.416H45.728l12.58-27.395h6.663" fill="#ee2722"/></svg>