<svg height="316.227766" viewBox="0 0 85 85" width="316.227766" xmlns="http://www.w3.org/2000/svg"><g fill-rule="evenodd"><path d="m0 34.7461c0-19.1904 15.5566-34.7461 34.749-34.7461 19.1914 0 34.748 15.5557 34.748 34.7461 0 19.1893-15.5566 34.7473-34.748 34.7473-19.1924 0-34.749-15.558-34.749-34.7473z" fill="#000000" transform="translate(14.46683)"/><g fill="#000000"><path d="m54.4327 37.7383c-6.462 28.6786-49.1602-32.3516-54.4327-6.3145 2.1817-31.4238 52.2696 29.4151 52.3477-5.5175-.0146-.0108.0732-.0938.0693-.1163 3.1055 7.9043 2.2696 9.3223 2.0157 11.9483z" transform="translate(24.30953 -9.2295)"/><path d="m0 5.7002c0-3.1474 3.165-5.7002 7.0693-5.7002s7.0684 2.5528 7.0684 5.7002c0 3.1494-3.1641 5.7012-7.0684 5.7012s-7.0693-2.5518-7.0693-5.7012z" transform="translate(53.75783 5.8525)"/><path d="m64.5254 54.5058c3.3535-1.648 6.3994-3.821 9.038-6.412 10.168-48.0938-51.6015-3.492-73.5634 23.964 63.6533-47.4475 70.8447-38.39 64.5254-17.552z" transform="translate(0 11.4346)"/></g></g></svg>