<svg xmlns="http://www.w3.org/2000/svg" viewBox="0 0 200 120" id="milk" style="max-width:9rem;">
	<path d="M46.4 0c-.63 0-1.45.23-2.45.68-1 .46-1.72 1-2.18 1.64-.45.63-1.54 4.14-3.26 10.5-1.72 6.36-2.59 9.73-2.59 10.09 0 .36.28.73.82 1.09.54.36.95.86 1.23 1.5.27.64.18 1.32-.28 2.05a9.7 9.7 0 0 0-1.09 2.59c-.27 1-.4 2.5-.4 4.5v3l.4-.82c.28-.55.6-.87.96-.96.36-.09 1.18-.9 2.45-2.45 1.27-1.55 2.17-2.32 2.72-2.32h.81v-.82c0-.54.37-1.27 1.1-2.18.72-.9 1.49-1.4 2.3-1.5.82-.09 1.82-.5 3-1.23 1.18-.72 2.18-1.04 3-.95.81.09 1.49.36 2.04.82.54.45 1.17.68 1.9.68h1.09v-8.46c0-5.63-.14-9-.41-10.09a6.68 6.68 0 0 0-1.5-2.86c-.72-.82-1.54-1.5-2.45-2.04-.9-.55-2.17-1.1-3.8-1.64A13.02 13.02 0 0 0 46.4 0zM5.72 5.46c1.27 0 2.94.45 5.03 1.36 2.09.9 3.5 1.77 4.22 2.59.72.82 1.59 2.4 2.58 4.77 1 2.37 1.36 3.96 1.1 4.77-.28.82-1.87 2.96-4.77 6.41l-4.35 5.19.13-2.32c.1-1.55 0-2.37-.27-2.46-.27-.09-.54-.63-.82-1.63-.27-1-.36-1.87-.27-2.6.1-.72-.04-1.45-.4-2.18a5.4 5.4 0 0 0-1.64-1.9 3.62 3.62 0 0 0-2.18-.82c-.72 0-1.27-.28-1.63-.82a1.43 1.43 0 0 0-1.5-.68l-.95.13v-3.4c0-2.28.18-3.69.55-4.23.36-.55 1-1.05 1.9-1.5.9-.46 2-.68 3.26-.68zm174.17.68c.9.09 1.77.32 2.59.68.81.36 1.72 1.18 2.72 2.45 1 1.28 1.5 2.55 1.5 3.82s-.37 2.77-1.1 4.5a43.67 43.67 0 0 1-3.67 6.55 99.37 99.37 0 0 1-6.4 8.59 158.9 158.9 0 0 1-10.34 11.18 132.5 132.5 0 0 1-9.8 9.14l-3.26 2.59 7.35 7.63 7.35 7.64-.27.14c-.19.09-1.96-.64-5.31-2.19-3.36-1.54-5.3-2.31-5.85-2.31-.55 0-1-.23-1.36-.69a5.86 5.86 0 0 0-2.32-1.36c-1.18-.45-1.95-1.5-2.31-3.14a19.1 19.1 0 0 1-.4-5.18c.08-1.82.63-3.18 1.63-4.09 1-.9 1.54-1.55 1.63-1.9.09-.37 1.04-1.55 2.86-3.55 1.81-2 2.76-3.32 2.85-3.96.1-.63 1.1-2.04 3-4.23a56.7 56.7 0 0 0 5.85-8.31c2-3.37 3-5.32 3-5.87 0-.54-.24-.95-.69-1.22-.45-.28-.59-.96-.4-2.05.17-1.1.08-1.77-.28-2.05-.36-.27-.9-.31-1.63-.13-.73.18-1.18.18-1.36 0-.18-.18-.23-.41-.14-.68.1-.28 1.36-2.05 3.81-5.32 2.45-3.28 4.08-5.14 4.9-5.6a8.84 8.84 0 0 1 2.86-.95c1.09-.18 2.08-.22 3-.13zM75.8 7.77c1.36.28 2.45.87 3.27 1.78l1.22 1.36-1.22.82c-.82.54-1.63.9-2.45 1.09-.82.18-1.27.59-1.36 1.22a3.3 3.3 0 0 1-1.22 1.91c-.73.64-1.05 1.23-.96 1.78.1.54.37.95.82 1.22.45.28.5.87.14 1.78-.37.9-.32 1.54.13 1.9.45.37.68.73.68 1.1 0 .36.18.63.55.82.36.18.58.63.68 1.36.09.73.27 1.23.54 1.5s.68.4 1.22.4c.55 0 .96.24 1.23.69.27.45.59.68.95.68s.73-.23 1.1-.68l.53-.68.28.54c.18.37.27 1.28.27 2.73 0 1.46-.4 2.23-1.22 2.32-.82.09-1.28.04-1.37-.14-.09-.18-.4-.27-.95-.27-.54 0-.9.14-1.09.4-.18.28-.27 1-.27 2.2 0 1.17-.23 1.95-.68 2.3-.45.37-.68.96-.68 1.78 0 .82.27 1.64.82 2.46.54.81.86 4.86.95 12.13.09 7.28.36 11.23.82 11.87l.68.95-2.32-1.36c-1.54-.91-2.72-1.32-3.53-1.23a1.6 1.6 0 0 1-1.77-.95 24.8 24.8 0 0 1-1.36-4.64c-.55-2.36-1.18-6.27-1.91-11.73-.73-5.45-1.32-8.86-1.77-10.23-.45-1.36-.82-2.18-1.09-2.45-.27-.27-.5-3.77-.68-10.5-.18-6.73.1-10.68.82-11.86.72-1.19 2.27-2.28 4.63-3.28 2.35-1 4.21-1.36 5.57-1.09zm60.15.41a12 12 0 0 1 3.4.41c.9.27 2 .87 3.27 1.77 1.27.91 2.08 6.14 2.45 15.69l.54 14.31 1.09-.68c.72-.45 2.18-1.82 4.35-4.09 2.18-2.27 4.95-5.55 8.3-9.82 3.36-4.27 5.13-6.36 5.31-6.27.18.1.27.36.27.82V21l1.5-.55 1.5-.54-.55 1.77-.54 1.77.81.14c.55.1.87.27.96.55.09.27-.32 1.27-1.23 3a63.75 63.75 0 0 1-3.67 6 57.52 57.52 0 0 1-4.9 6.27c-1.72 1.9-2.54 3.04-2.45 3.4.1.37-.04.83-.4 1.37-.37.55-1.19 1.5-2.46 2.87l-1.9 2.04-.14-.27c-.09-.18.32-.77 1.23-1.77.9-1 1.31-1.6 1.22-1.78l-.14-.27-.4.4c-.28.28-.82.92-1.64 1.92-.81 1-1.09 1.68-.81 2.04.27.37-.14 1.05-1.23 2.05-1.09 1-1.63 2.95-1.63 5.86s.14 4.77.4 5.6a4.8 4.8 0 0 0 1.1 1.9c.45.46.9.73 1.36.82.45.1.68.27.68.55v.4l.68-.13c.45-.1.95.14 1.5.68.54.55 1.13.82 1.76.82.64 0 3.04.9 7.22 2.73 4.17 1.81 8.93 5.63 14.28 11.45l8.03 8.73-2.18.13c-1.45.1-2.94-.13-4.48-.68a16.47 16.47 0 0 0-3.82-.95c-1-.1-4.21-1.27-9.66-3.55-5.44-2.27-9.66-4.86-12.65-7.77l-4.5-4.36-.13 2.31-.13 2.32-.28-.27c-.18-.18-.4-.23-.68-.14-.27.1-.4.64-.4 1.64 0 1-.28 1.55-.82 1.64-.55.09-1-.23-1.36-.96l-.55-1.09-.81.41-.82.4-.14-.4c-.09-.27-.36-.4-.81-.4-.46 0-1.1-.83-1.9-2.46a17.4 17.4 0 0 0-2.32-3.69c-.73-.81-1.36-1.22-1.9-1.22a2.3 2.3 0 0 1-1.5-.55 1.5 1.5 0 0 0-1.5-.27l-.82.27-.54-7.5c-.36-5 .18-8.27 1.63-9.82 1.45-1.54 2.32-2.72 2.59-3.54.27-.82.4-1.68.4-2.6 0-.9-.13-2.17-.4-3.81-.27-1.64-.6-6.27-.95-13.91-.37-7.64-.73-11.9-1.1-12.82-.36-.9-.85-1.32-1.49-1.23l-.95.14V13.5c0-1.73.32-2.9.95-3.54a6.22 6.22 0 0 1 1.9-1.37 8.1 8.1 0 0 1 3-.4zm-38.92.41.95.14-.4 3.13c-.28 2.1-.28 3.28 0 3.55.27.27.4.64.4 1.09 0 .45.32.86.96 1.23.63.36 1 .86 1.08 1.5.1.63.14 13.32.14 38.04 0 24.73.14 37.6.41 38.6.27 1 .4 3.31.4 6.95v5.45l-2.85-.27a10.7 10.7 0 0 1-4.63-1.36 5.66 5.66 0 0 1-2.45-3.14 29.6 29.6 0 0 1-1.08-5.86c-.28-2.55-.5-8.46-.69-17.73-.18-9.27.1-14.05.82-14.32.73-.27 1.09-4.32 1.09-12.14 0-7.81-.23-12.04-.68-12.68a3.67 3.67 0 0 1-.68-2.18c0-.82-.14-1.4-.4-1.77-.28-.37-.37-2.96-.28-7.77.09-4.82.27-7.41.54-7.78.28-.36.82-.63 1.64-.82l1.22-.27-.27-1.23c-.18-.81-.6-1.36-1.23-1.63l-.95-.41.82-1.1c.54-.72.81-1.31.81-1.77 0-.45-.27-.77-.81-.95-.55-.18-.77-.54-.68-1.09.09-.55.54-1.18 1.36-1.9a5.6 5.6 0 0 1 2.86-1.37 8.84 8.84 0 0 1 2.58-.14zm2.04.14 1.5.27c1 .18 1.81.46 2.45.82a8.9 8.9 0 0 1 1.9 1.5 6.8 6.8 0 0 1 1.5 2.32c.36.9.45 4.45.27 10.63-.18 6.18-.22 19-.13 38.46.09 19.45.27 29.32.54 29.59.27.27 1.18.4 2.72.4 1.55 0 3.36-.13 5.45-.4l3.13-.41v3.82l-.41-.14c-.28-.09-.6.05-.95.41-.37.36-.55 1-.55 1.9v1.37h-.82c-.54 0-.86.1-.95.28-.09.18-.22 1.5-.4 3.95-.19 2.45-2.23 3.82-6.13 4.1l-5.85.4-.14-5.6c-.09-3.72-.27-6.04-.54-6.95-.27-.9-.41-13.72-.41-38.45 0-24.73-.1-37.55-.27-38.45-.18-.91-.55-1.46-1.1-1.64-.54-.18-.76-.46-.67-.82.09-.36 0-.63-.27-.82-.28-.18-.32-1.31-.14-3.4l.27-3.14zm-18.1 3.54c.28.19.5.68.69 1.5.18.82.31 3.14.4 6.96l.14 5.72h-.55c-.36 0-.77.23-1.22.69l-.68.68-.14-.82c-.09-.55-.5-.77-1.22-.68l-1.09.13-.14-1.22c-.09-.82-.31-1.28-.68-1.37-.36-.09-.54-.36-.54-.81 0-.46-.23-.78-.68-.96l-.68-.27.68-1.1c.45-.72.64-1.27.54-1.63-.09-.36-.4-.73-.95-1.09l-.81-.55 1.22-.95c.82-.64 1.18-1.18 1.09-1.64-.1-.45-.05-.77.13-.95.19-.18.5-.18.96 0 .45.18.86 0 1.22-.55.36-.54.77-.9 1.23-1.09.45-.18.81-.18 1.09 0zm47.77 1.64.13 1.36c.1.91.5 1.5 1.23 1.78.72.27 1.22.81 1.5 1.63.27.82.54 4.32.81 10.5s.6 10.77.95 13.77c.37 3 .37 5.19 0 6.55a8.41 8.41 0 0 1-1.9 3.55l-1.36 1.5-.27-.69c-.19-.45-.46-5.04-.82-13.77a344.2 344.2 0 0 1-.4-19.64l.13-6.54zM1.09 16.36c.36 0 .63.23.81.69.19.45.69.68 1.5.68.82 0 1.27.13 1.36.4.1.28.37.46.82.55.45.1.82.41 1.09.96.27.54.36 1.18.27 1.9-.1.73.04 1.46.4 2.19.37.72.5 1.32.42 1.77-.1.45.04.77.4.95.37.19.46.5.28.96-.18.45-.28 1.4-.28 2.86s.1 2.28.28 2.46c.18.18.45.18.81 0 .37-.18.6-.46.68-.82.1-.36 1.18-1.68 3.27-3.96a48.82 48.82 0 0 0 4.49-5.45c.9-1.36 1.5-2.1 1.77-2.18l.4-.14 4.36 13.91C27.12 43.36 28.67 48 28.85 48c.18 0 .5-.73.95-2.18a350 350 0 0 0 3.13-11.73l2.45-9.55.54.28c.37.18.64.59.82 1.23.18.63.05 1.27-.4 1.9a5.93 5.93 0 0 0-.96 2.19c-.18.81-.32 2.36-.4 4.63-.1 2.27-.05 3.68.13 4.23l.27.82 1.09-.82c.72-.55 1.13-1 1.22-1.36.1-.37.37-.69.82-.96.45-.27 1.22-1.09 2.31-2.45 1.1-1.37 1.86-1.96 2.32-1.78.45.19.86.05 1.22-.4.36-.46.5-.91.4-1.37-.08-.45.1-.86.55-1.23.46-.36.73-.72.82-1.09.09-.36.59-.59 1.5-.68.9-.09 1.86-.5 2.85-1.23 1-.72 1.86-1 2.59-.81.73.18 1.27.45 1.63.81.36.37 1 .6 1.9.69.91.09 1.46 6.86 1.64 20.31l.27 20.19-.54-1.1c-.37-.72-.86-3.77-1.5-9.13-.63-5.36-1.27-9.1-1.9-11.18-.64-2.1-.96-3.46-.96-4.1 0-.63-.36-1.27-1.09-1.9l-1.08-.96-1.64 2.05c-1.08 1.36-1.81 2.04-2.17 2.04-.37 0-.68.14-.96.41-.27.28-.95 1.23-2.04 2.87C43.54 48.27 43 49.23 43 49.5v.4l.68-.13.68-.13v.27c0 .18-.73 1.64-2.18 4.36a34.93 34.93 0 0 0-2.85 6.55c-.46 1.63-.87 2.59-1.23 2.86s-.59 1.32-.68 3.14c-.09 1.82-.32 2.9-.68 3.27-.36.36-.63 1.73-.82 4.1-.18 2.36-.54 3.81-1.09 4.36-.54.54-1.31.81-2.3.81-1 0-1.64.6-1.91 1.78l-.41 1.77c-.27-.1-.55-.18-.82-.27-.54-.19-.86-.69-.95-1.5-.1-.82-.27-1.23-.54-1.23-.28 0-.87.36-1.77 1.09l-1.36 1.1v-1.92l-.55.14-.54.13-.55-3.27c-.36-2.18-.72-3.59-1.09-4.23-.36-.63-.5-7-.4-19.09.09-12.09 0-18.18-.28-18.27-.27-.09-.5-.05-.68.14-.18.18-1.45 1.95-3.8 5.32-2.36 3.36-4 6-4.9 7.9-.91 1.91-1.23 3.19-.96 3.82.28.64.28 1.05 0 1.23-.27.18-.45.9-.54 2.18-.1 1.27.13 4.82.68 10.64.54 5.82.9 11 1.09 15.54.18 4.55.54 8.73 1.09 12.55l.81 5.73-.27-.14-.27-.14-.14.41-.13.41-.14-.68-.14-.68-.13.82c-.1.54 0 1.5.27 2.86l.4 2.05-.4-.28c-.27-.18-.9-.22-1.9-.13-1 .09-1.5.5-1.5 1.22a3.3 3.3 0 0 1-.55 1.91c-.36.55-.63.82-.81.82-.18 0-.41-.45-.68-1.36-.27-.91-.64-1.32-1.1-1.23-.45.1-.95.45-1.49 1.1-.27.3-.54.63-.81.95v-1.23c0-.82-.32-1.41-.96-1.77a3.1 3.1 0 0 1-1.36-1.91c-.27-.91-.59-4.32-.95-10.23s-.64-9-.82-9.27C.1 83.86 0 72.82 0 51s.1-33.05.27-33.68c.18-.64.46-.96.82-.96zM89.26 18l.82.14c.55.09.9.36 1.09.81l.27.69h-2.17V18zm-10.6 16.1.54.4c.36.27.95.36 1.77.27l1.22-.13.14 15.95c.09 10.64.04 16.1-.14 16.36-.18.28-.5.41-.95.41-.46 0-.73-.31-.82-.95-.09-.64-.32-.95-.68-.95-.36 0-.63-.6-.82-1.78-.18-1.18-.27-4.95-.27-11.32 0-6.36-.27-9.95-.82-10.77l-.81-1.23.27-.13c.18-.1.23-.37.14-.82l-.14-.68.68-.14c.45-.09.68-.86.68-2.32V34.1zm-13.62 3.26h.28c.18 0 .45.82.81 2.46.37 1.63.95 5.5 1.77 11.59.82 6.09 1.5 9.82 2.04 11.18a11.33 11.33 0 0 0 1.5 2.86c.45.55 1.04.69 1.77.41.72-.27 1.27-.31 1.63-.13.36.18.55.5.55.95v.68l.81-.27c.55-.18 1.18 0 1.9.55a3.62 3.62 0 0 1 1.37 1.63c.18.55.5.87.95.96.45.09.68.32.68.68 0 .36.23.64.68.82l.68.27-.68.55c-.45.36-.72.81-.81 1.36-.1.54.09.9.54 1.09.45.18.72.4.82.68l.13.41-1.77.14-1.77.13.28 1.78c.18 1.18.04 1.81-.41 1.9-.46.1-.86.37-1.23.82-.36.46-.68.6-.95.41a1.14 1.14 0 0 0-.95-.13c-.36.09-.5 1.77-.41 5.04.09 3.27-.14 5.05-.68 5.32-.54.27-1 .27-1.36 0-.36-.27-.6-1.64-.68-4.1-.1-2.45-.41-3.72-.95-3.8-.55-.1-.91-.05-1.1.13-.17.18-.27 4.22-.27 12.13 0 7.91-.18 12.1-.54 12.55-.36.45-.82.5-1.36.14-.54-.37-.82-5.23-.82-14.6 0-9.36-.22-14.13-.68-14.31l-.68-.28.14.55.14.54h-.28c-.18 0-.31-.27-.4-.81-.1-.55-.23-7.73-.41-21.55l-.28-20.73zm-44.63.82-.14 16.23c-.09 10.82.23 17.64.96 20.45l1.09 4.23-.96-1.5c-.63-1-1.72-3.59-3.26-7.77l-2.32-6.27.41 24c.27 16 .1 24.54-.54 25.63-.64 1.1-1.13 1.73-1.5 1.91a6.2 6.2 0 0 1-2.31.27c-1.18 0-2.5-.27-3.95-.81a12.9 12.9 0 0 1-3.67-2.05 8.33 8.33 0 0 1-2.31-3 13.7 13.7 0 0 1-1.1-4.23l-.27-2.45.41 1.36c.28.91.68 1.5 1.23 1.77.54.28.95.96 1.22 2.05.27 1.1.64 1.64 1.1 1.64.44 0 .94-.23 1.49-.69l.81-.68.41.96c.28.63.68.95 1.23.95.54 0 1.04-.23 1.5-.68.45-.45.72-1.1.81-1.9.1-.83.68-1.2 1.77-1.1 1.09.1 1.72.05 1.9-.14.19-.18.19-.86 0-2.04a4.13 4.13 0 0 1 .41-2.86c.46-.73.5-1.69.14-2.87a33.64 33.64 0 0 1-.95-5.86c-.28-2.73-.78-9.41-1.5-20.05-.73-10.64-.9-16.32-.54-17.04.36-.73.5-1.73.4-3a7.93 7.93 0 0 1 1.1-4.23 57.58 57.58 0 0 1 4.07-6.27l2.86-3.96zM89 40.64l.55.68c.36.45.54 4.45.54 12 0 7.54-.09 11.36-.27 11.45-.18.1-.36.05-.55-.13-.18-.19-.27-4.23-.27-12.14V40.64zm-37.55.27.54.4c.36.28.6.87.68 1.78.1.91.36 1.95.82 3.14.45 1.18 1.04 4.72 1.77 10.63.72 5.91 1.5 9.78 2.31 11.6.82 1.81 1.4 8.9 1.77 21.27.36 12.36.36 19.04 0 20.04a6 6 0 0 1-1.23 2.19 8.7 8.7 0 0 1-2.72 1.5c-1.36.54-2.63.86-3.8.95a10.1 10.1 0 0 1-4.09-.68 6.6 6.6 0 0 1-3.27-2.18c-.63-.91-1-1.64-1.08-2.19-.1-.54-.23-6.68-.41-18.4a588.37 588.37 0 0 0-.68-23.87l-.41-6.27-.82 2.32c-.54 1.54-1.22 4.54-2.04 9-.81 4.45-1.59 7.45-2.31 9-.73 1.54-1.36 2.54-1.9 3a5.2 5.2 0 0 1-2.46.95 7.02 7.02 0 0 1-3.53-.4c-1.27-.46-2.04-.87-2.32-1.24l-.4-.54.81-.41.82-.4.4.8c.28.55.82.87 1.64.96.81.1 1.36 0 1.63-.27.27-.27.55-.9.82-1.9.27-1 .77-1.46 1.5-1.37.72.09 1.4-.14 2.04-.68.63-.55 1.04-1.46 1.22-2.73.18-1.27.36-1.96.54-2.05.19-.09.23-.68.14-1.77-.09-1.09.05-1.77.4-2.05.37-.27.55-1.27.55-3 0-1.72.23-2.86.68-3.4.46-.55.87-1.55 1.23-3 .36-1.46 1.27-3.55 2.72-6.28 1.45-2.72 2.22-4.5 2.31-5.31.1-.82.05-1.32-.13-1.5-.18-.19.09-.82.81-1.91.73-1.1 1.36-1.73 1.9-1.91.55-.18 1.28-.87 2.19-2.05l1.36-1.77zm28.84 27.55h2.18v1.36l-1.09-.41c-.72-.27-1.09-.5-1.09-.68v-.28zm53.07 3.95a4.9 4.9 0 0 1 2.59 1.5c.63.73 1.04 1.5 1.22 2.32.19.81.46 1.32.82 1.5.36.18.64.54.82 1.09.18.54.54.9 1.08 1.09.55.18.96.45 1.23.82.27.36.68.5 1.22.4.55-.08 1.05.14 1.5.69.45.54 1 .77 1.63.68.64-.1 1.1-.23 1.36-.4.28-.2.41-.64.41-1.37v-1.1h.28c.18 0 .5 5.73.95 17.19.45 11.45.45 17.68 0 18.68a7.88 7.88 0 0 1-3.67 3.95 8.43 8.43 0 0 1-7.35-.68c-1.45-.81-2.5-2-3.13-3.54a21.09 21.09 0 0 1-1.23-6.41l-.27-4.1-8.7 1.1-8.72 1.09v-2.6c0-1.72.1-2.77.27-3.13.19-.36.55-.64 1.1-.82.54-.18.8-.77.8-1.77s.28-1.55.83-1.64c.54-.09.9-.27 1.08-.54.19-.27.28-1.14.28-2.6 0-1.45 1.95-2.5 5.85-3.13 3.9-.64 5.71-3.82 5.44-9.54-.27-5.73-.23-8.69.14-8.87.36-.18 1.08-.13 2.17.14zm-52.8 5.04h.96c.63 0 1.04 4.64 1.22 13.91.19 9.28.05 14.46-.4 15.55a6.9 6.9 0 0 1-3.95 3.95c-.73.28-1.81.41-3.27.41-1.45 0-2.67-.18-3.67-.54l-1.5-.55.82-1.77c.54-1.18.82-4.27.82-9.27v-7.5l.68.68c.45.45.9.73 1.36.82.45.09 1.04-.14 1.77-.69.72-.54 1.04-2.27.95-5.18-.1-2.9.09-4.4.54-4.5a6.9 6.9 0 0 0 2.18-1.22c1-.73 1.5-1.6 1.5-2.6v-1.5zM65.87 82.1l.27.14c.18.09.28 3.68.28 10.77v10.64l-.28-1.78c-.18-1.18-.27-4.77-.27-10.77v-9zm91.98 1.9 7.48 3.14c5 2.09 9.07 3.5 12.25 4.22 3.17.73 5.4.96 6.67.69 1.27-.28 4.03 2.04 8.3 6.95 4.26 4.9 6.62 8.1 7.07 9.55a6.6 6.6 0 0 1 .14 3.95 5.73 5.73 0 0 1-1.9 2.86 7.71 7.71 0 0 1-3 1.5 8.06 8.06 0 0 1-2.86.28 7.69 7.69 0 0 1-2.58-.82c-.91-.46-2.95-2.23-6.13-5.32-3.17-3.1-6.3-6.4-9.39-9.95a268.94 268.94 0 0 0-10.34-11.19L157.85 84z"></path>
</svg>